<svg xmlns="http://www.w3.org/2000/svg" viewBox="0 0 64 64" role="img" aria-label="VideoLens">
  <defs>
    <linearGradient id="bg" x1="8" y1="6" x2="56" y2="58" gradientUnits="userSpaceOnUse">
      <stop offset="0" stop-color="#22d3ee"/>
      <stop offset=".5" stop-color="#0891b2"/>
      <stop offset="1" stop-color="#6366f1"/>
    </linearGradient>
    <linearGradient id="shine" x1="18" y1="10" x2="48" y2="54" gradientUnits="userSpaceOnUse">
      <stop offset="0" stop-color="#fff" stop-opacity=".72"/>
      <stop offset=".42" stop-color="#fff" stop-opacity=".08"/>
      <stop offset="1" stop-color="#fff" stop-opacity="0"/>
    </linearGradient>
    <radialGradient id="lens" cx="31" cy="29" r="24" gradientUnits="userSpaceOnUse">
      <stop offset="0" stop-color="#fff" stop-opacity=".98"/>
      <stop offset=".5" stop-color="#e0f2fe" stop-opacity=".82"/>
      <stop offset="1" stop-color="#fff" stop-opacity=".36"/>
    </radialGradient>
    <filter id="shadow" x="-20%" y="-20%" width="140%" height="140%">
      <feDropShadow dx="0" dy="3" stdDeviation="3" flood-color="#0f172a" flood-opacity=".28"/>
    </filter>
  </defs>

  <rect width="64" height="64" rx="15" fill="url(#bg)"/>
  <path d="M10 14c11-7 30-7 44 2v7C40 14 23 15 10 23z" fill="url(#shine)"/>

  <g filter="url(#shadow)">
    <circle cx="32" cy="32" r="20" fill="none" stroke="url(#lens)" stroke-width="5"/>
    <circle cx="32" cy="32" r="13" fill="#0f172a" fill-opacity=".2" stroke="#fff" stroke-opacity=".48" stroke-width="2"/>
    <path d="M28 24.5v15l13-7.5z" fill="#fff"/>
  </g>

  <path d="M45.5 13l1.55 3.55L50.5 18l-3.45 1.45L45.5 23l-1.55-3.55L40.5 18l3.45-1.45z" fill="#fff" fill-opacity=".92"/>
</svg>
